<svg width="30" height="30" viewBox="0 0 30 30" fill="none" xmlns="http://www.w3.org/2000/svg">
<g clip-path="url(#clip0_1052_5485)">
<path d="M29.7076 15.3458C29.7076 14.3261 29.6249 13.301 29.4485 12.2979H15.3V18.0741H23.4022C23.066 19.937 21.9857 21.585 20.4039 22.6322V26.3802H25.2376C28.0761 23.7676 29.7076 19.9095 29.7076 15.3458Z" fill="#4285F4"/>
<path d="M15.2999 30.0007C19.3454 30.0007 22.7572 28.6724 25.2429 26.3795L20.4092 22.6316C19.0644 23.5465 17.3282 24.0646 15.3054 24.0646C11.3921 24.0646 8.07409 21.4245 6.88357 17.875H1.89551V21.7387C4.4419 26.8039 9.62838 30.0007 15.2999 30.0007Z" fill="#34A853"/>
<path d="M6.87822 17.8754C6.24989 16.0124 6.24989 13.9952 6.87822 12.1322V8.26855H1.89568C-0.231827 12.507 -0.231827 17.5006 1.89568 21.7391L6.87822 17.8754Z" fill="#FBBC04"/>
<path d="M15.2999 5.93708C17.4384 5.90401 19.5053 6.70871 21.0541 8.18583L25.3366 3.90327C22.6249 1.35688 19.0258 -0.0430825 15.2999 0.00101083C9.62838 0.00101083 4.4419 3.19778 1.89551 8.26851L6.87805 12.1322C8.06306 8.57716 11.3866 5.93708 15.2999 5.93708Z" fill="#EA4335"/>
</g>
<defs>
<clipPath id="clip0_1052_5485">
<rect width="30" height="30" fill="white"/>
</clipPath>
</defs>
</svg>
